# Blender 4.0.1
# www.blender.org
mtllib level1.mtl
o Cube
v 1.000000 0.200000 -1.000000
v 1.000000 -0.200000 -1.000000
v 1.000000 0.200000 1.000000
v 1.000000 -0.200000 1.000000
v -1.000000 0.200000 -1.000000
v -1.000000 -0.200000 -1.000000
v -1.000000 0.200000 1.000000
v -1.000000 -0.200000 1.000000
v 6.368065 0.200000 -1.000000
v 6.368065 -0.200000 -1.000000
v 6.368065 0.200000 1.000000
v 6.368065 -0.200000 1.000000
v 1.000000 0.200000 -7.978116
v 1.000000 -0.200000 -7.978116
v 6.368065 0.200000 -7.978116
v 6.368065 -0.200000 -7.978116
v 13.705802 0.200000 -1.000000
v 13.705802 -0.200000 -1.000000
v 13.705802 0.200000 -7.978116
v 13.705802 -0.200000 -7.978116
v 10.036934 -0.200000 -7.978116
v 10.036934 -0.200000 -1.000000
v 10.036934 0.200000 -1.000000
v 10.036934 0.200000 -7.978116
v 13.705802 0.200000 -16.324625
v 13.705802 -0.200000 -16.324625
v 10.036934 -0.200000 -16.324625
v 10.036934 0.200000 -16.324625
v -4.384841 0.200000 -1.000000
v -4.384841 -0.200000 -1.000000
v -4.384841 0.200000 1.000000
v -4.384841 -0.200000 1.000000
vn -0.0000 1.0000 -0.0000
vn -0.0000 -0.0000 1.0000
vn -0.0000 -1.0000 -0.0000
vn -0.0000 -0.0000 -1.0000
vn 1.0000 -0.0000 -0.0000
vn -1.0000 -0.0000 -0.0000
vt 0.625000 0.500000
vt 0.875000 0.500000
vt 0.875000 0.750000
vt 0.625000 0.750000
vt 0.375000 0.750000
vt 0.625000 1.000000
vt 0.375000 1.000000
vt 0.125000 0.500000
vt 0.125000 0.750000
vt 0.375000 0.500000
vt 0.375000 0.250000
vt 0.625000 0.250000
vt 0.375000 0.000000
vt 0.625000 0.000000
s 0
usemtl Material
f 1/1/1 5/2/1 7/3/1 3/4/1
f 4/5/2 3/4/2 7/6/2 8/7/2
f 6/8/3 8/9/3 32/9/3 30/8/3
f 6/8/3 2/10/3 4/5/3 8/9/3
f 3/4/2 4/5/2 12/5/2 11/4/2
f 6/11/4 5/12/4 1/1/4 2/10/4
f 10/10/5 9/1/5 11/4/5 12/5/5
f 22/10/3 21/10/3 20/10/3 18/10/3
f 4/5/3 2/10/3 10/10/3 12/5/3
f 1/1/1 3/4/1 11/4/1 9/1/1
f 14/10/4 13/1/4 15/1/4 16/10/4
f 10/10/3 2/10/3 14/10/3 16/10/3
f 2/10/6 1/1/6 13/1/6 14/10/6
f 1/1/1 9/1/1 15/1/1 13/1/1
f 17/1/5 18/10/5 20/10/5 19/1/5
f 24/1/1 23/1/1 17/1/1 19/1/1
f 23/1/2 22/10/2 18/10/2 17/1/2
f 19/1/5 20/10/5 26/10/5 25/1/5
f 16/10/4 15/1/4 24/1/4 21/10/4
f 9/1/2 10/10/2 22/10/2 23/1/2
f 15/1/1 9/1/1 23/1/1 24/1/1
f 10/10/3 16/10/3 21/10/3 22/10/3
f 27/10/4 28/1/4 25/1/4 26/10/4
f 21/10/6 24/1/6 28/1/6 27/10/6
f 20/10/3 21/10/3 27/10/3 26/10/3
f 24/1/1 19/1/1 25/1/1 28/1/1
f 32/13/6 31/14/6 29/12/6 30/11/6
f 7/3/1 5/2/1 29/2/1 31/3/1
f 5/12/4 6/11/4 30/11/4 29/12/4
f 8/7/2 7/6/2 31/6/2 32/7/2
